
<global>
amp_veltrack=0
ampeg_attack=0.001
ampeg_release=0.45
xf_cccurve=gain
xfin_hicc1=127
xfout_hicc1=127
xfout_locc1=127
</global>

<group>
group_label=FF

<region>
hikey=D6
hivel=127
lokey=C#6
loop_end=286302
loop_mode=loop_continuous
loop_start=57104
loop_xfade=23271
lovel=0
pitch_keycenter=C#6
sample=Oboe_sustain_FF_C#6.opus
tune=-38
</region>

<region>
hikey=E6
hivel=127
lokey=D#6
loop_end=273661
loop_mode=loop_continuous
loop_start=57684
loop_xfade=23507
lovel=0
pitch_keycenter=D#6
sample=Oboe_sustain_FF_D#6.opus
tune=-37
</region>

<region>
hikey=A6
hivel=127
lokey=F6
loop_end=291037
loop_mode=loop_continuous
loop_start=57395
loop_xfade=23389
lovel=0
pitch_keycenter=F6
sample=Oboe_sustain_FF_F6.opus
tune=-4
</region>

<region>
hikey=A#5
hivel=127
lokey=A5
loop_end=272365
loop_mode=loop_continuous
loop_start=57695
loop_xfade=23512
lovel=0
pitch_keycenter=A5
sample=Oboe_sustain_FF_A5.opus
tune=-29
</region>

<region>
hikey=C6
hivel=127
lokey=B5
loop_end=272955
loop_mode=loop_continuous
loop_start=57193
loop_xfade=23307
lovel=0
pitch_keycenter=B5
sample=Oboe_sustain_FF_B5.opus
tune=-33
</region>

<region>
hikey=D#5
hivel=127
lokey=D5
loop_end=295756
loop_mode=loop_continuous
loop_start=56740
loop_xfade=23122
lovel=0
pitch_keycenter=D5
sample=Oboe_sustain_FF_D5.opus
tune=-14
</region>

<region>
hikey=F5
hivel=127
lokey=E5
loop_end=273634
loop_mode=loop_continuous
loop_start=56076
loop_xfade=22852
lovel=0
pitch_keycenter=E5
sample=Oboe_sustain_FF_E5.opus
tune=-28
</region>

<region>
hikey=G#5
hivel=127
lokey=F#5
loop_end=294551
loop_mode=loop_continuous
loop_start=57046
loop_xfade=23247
lovel=0
pitch_keycenter=F#5
sample=Oboe_sustain_FF_F#5.opus
tune=-11
</region>

<region>
hikey=C#5
hivel=127
lokey=C5
loop_end=274296
loop_mode=loop_continuous
loop_start=56632
loop_xfade=23078
lovel=0
pitch_keycenter=C5
sample=Oboe_sustain_FF_C5.opus
tune=-17
</region>

<region>
hikey=B4
hivel=127
lokey=A#4
loop_end=293145
loop_mode=loop_continuous
loop_start=57127
loop_xfade=23280
lovel=0
pitch_keycenter=A#4
sample=Oboe_sustain_FF_A#4.opus
tune=-7
</region>

<region>
hikey=F4
hivel=127
lokey=E4
loop_end=297555
loop_mode=loop_continuous
loop_start=57304
loop_xfade=23352
lovel=0
pitch_keycenter=E4
sample=Oboe_sustain_FF_E4.opus
tune=-16
</region>

<region>
hikey=G4
hivel=127
lokey=F#4
loop_end=283742
loop_mode=loop_continuous
loop_start=57584
loop_xfade=23466
lovel=0
pitch_keycenter=F#4
sample=Oboe_sustain_FF_F#4.opus
tune=-12
</region>

<region>
hikey=A4
hivel=127
lokey=G#4
loop_end=285503
loop_mode=loop_continuous
loop_start=57025
loop_xfade=23238
lovel=0
pitch_keycenter=G#4
sample=Oboe_sustain_FF_G#4.opus
tune=-18
</region>

<region>
hikey=B3
hivel=127
lokey=A#3
loop_end=283701
loop_mode=loop_continuous
loop_start=57899
loop_xfade=23595
lovel=0
pitch_keycenter=A#3
sample=Oboe_sustain_FF_A#3.opus
tune=-6
</region>

<region>
hikey=C#4
hivel=127
lokey=C4
loop_end=293909
loop_mode=loop_continuous
loop_start=56818
loop_xfade=23154
lovel=0
sample=Oboe_sustain_FF_C4.opus
tune=-9
</region>

<region>
hikey=D#4
hivel=127
lokey=D4
loop_end=296263
loop_mode=loop_continuous
loop_start=57361
loop_xfade=23375
lovel=0
pitch_keycenter=D4
sample=Oboe_sustain_FF_D4.opus
tune=-11
</region>
</group>